<mxfile host="app.diagrams.net" modified="2024-05-23T09:15:30.861Z" agent="Mozilla/5.0 (Windows NT 10.0; Win64; x64) AppleWebKit/537.36 (KHTML, like Gecko) Chrome/124.0.0.0 Safari/537.36" etag="TiFGD4Ef7MP4l7QtV4jp" version="24.4.6" type="github">
  <diagram id="f8x8FIPD15dflX-yVgTz" name="第 1 页">
    <mxGraphModel dx="794" dy="420" grid="1" gridSize="10" guides="1" tooltips="1" connect="1" arrows="1" fold="1" page="1" pageScale="1" pageWidth="827" pageHeight="1169" math="0" shadow="0">
      <root>
        <mxCell id="0" />
        <mxCell id="1" parent="0" />
        <mxCell id="lL1rAe6qH-szkAXvem2V-1" value="" style="rounded=0;whiteSpace=wrap;html=1;" parent="1" vertex="1">
          <mxGeometry x="40" y="40" width="320" height="180" as="geometry" />
        </mxCell>
        <mxCell id="lL1rAe6qH-szkAXvem2V-2" value="首页" style="text;html=1;align=center;verticalAlign=middle;resizable=0;points=[];autosize=1;strokeColor=none;fillColor=none;" parent="1" vertex="1">
          <mxGeometry x="180" y="10" width="40" height="20" as="geometry" />
        </mxCell>
        <mxCell id="lL1rAe6qH-szkAXvem2V-4" value="" style="rounded=1;whiteSpace=wrap;html=1;" parent="1" vertex="1">
          <mxGeometry x="165" y="110" width="70" height="10" as="geometry" />
        </mxCell>
        <mxCell id="lL1rAe6qH-szkAXvem2V-5" value="玩家昵称23ew123123123213" style="text;html=1;strokeColor=none;fillColor=none;align=center;verticalAlign=middle;whiteSpace=wrap;rounded=0;fontStyle=1" parent="1" vertex="1">
          <mxGeometry x="175" y="80" width="50" height="20" as="geometry" />
        </mxCell>
        <mxCell id="lL1rAe6qH-szkAXvem2V-7" value="开始游戏" style="rounded=1;whiteSpace=wrap;html=1;fontSize=8;" parent="1" vertex="1">
          <mxGeometry x="180" y="125" width="40" height="10" as="geometry" />
        </mxCell>
        <mxCell id="lL1rAe6qH-szkAXvem2V-10" value="" style="rounded=0;whiteSpace=wrap;html=1;" parent="1" vertex="1">
          <mxGeometry x="400" y="40" width="320" height="180" as="geometry" />
        </mxCell>
        <mxCell id="lL1rAe6qH-szkAXvem2V-11" value="大厅" style="text;html=1;align=center;verticalAlign=middle;resizable=0;points=[];autosize=1;strokeColor=none;fillColor=none;" parent="1" vertex="1">
          <mxGeometry x="540" y="10" width="40" height="20" as="geometry" />
        </mxCell>
        <mxCell id="lL1rAe6qH-szkAXvem2V-13" value="失败的面" style="text;html=1;strokeColor=none;fillColor=none;align=center;verticalAlign=middle;whiteSpace=wrap;rounded=0;fontStyle=1" parent="1" vertex="1">
          <mxGeometry x="430" y="70" width="55" height="20" as="geometry" />
        </mxCell>
        <mxCell id="lL1rAe6qH-szkAXvem2V-15" value="小七大厅" style="text;html=1;strokeColor=none;fillColor=none;align=center;verticalAlign=middle;whiteSpace=wrap;rounded=0;fontStyle=1" parent="1" vertex="1">
          <mxGeometry x="602.5" y="60" width="55" height="20" as="geometry" />
        </mxCell>
        <mxCell id="lL1rAe6qH-szkAXvem2V-16" value="" style="rounded=1;whiteSpace=wrap;html=1;fontSize=8;" parent="1" vertex="1">
          <mxGeometry x="560" y="90" width="140" height="105" as="geometry" />
        </mxCell>
        <mxCell id="lL1rAe6qH-szkAXvem2V-18" value="创建房间" style="text;html=1;strokeColor=none;fillColor=none;align=center;verticalAlign=middle;whiteSpace=wrap;rounded=0;fontStyle=1" parent="1" vertex="1">
          <mxGeometry x="450" y="100" width="55" height="20" as="geometry" />
        </mxCell>
        <mxCell id="lL1rAe6qH-szkAXvem2V-19" value="加入房间" style="text;html=1;strokeColor=none;fillColor=none;align=center;verticalAlign=middle;whiteSpace=wrap;rounded=0;fontStyle=1" parent="1" vertex="1">
          <mxGeometry x="450" y="125" width="55" height="20" as="geometry" />
        </mxCell>
        <mxCell id="lL1rAe6qH-szkAXvem2V-20" value="快速加入" style="text;html=1;strokeColor=none;fillColor=none;align=center;verticalAlign=middle;whiteSpace=wrap;rounded=0;fontStyle=1" parent="1" vertex="1">
          <mxGeometry x="450" y="150" width="55" height="20" as="geometry" />
        </mxCell>
        <mxCell id="lL1rAe6qH-szkAXvem2V-21" value="刷新" style="text;html=1;strokeColor=none;fillColor=none;align=center;verticalAlign=middle;whiteSpace=wrap;rounded=0;fontStyle=1" parent="1" vertex="1">
          <mxGeometry x="560" y="170" width="140" height="20" as="geometry" />
        </mxCell>
        <mxCell id="lL1rAe6qH-szkAXvem2V-23" value="房间1号" style="text;html=1;strokeColor=none;fillColor=none;align=left;verticalAlign=middle;whiteSpace=wrap;rounded=0;fontStyle=1;labelBorderColor=#000000;" parent="1" vertex="1">
          <mxGeometry x="570" y="100" width="120" height="20" as="geometry" />
        </mxCell>
        <mxCell id="lL1rAe6qH-szkAXvem2V-24" value="房间2号" style="text;html=1;strokeColor=none;fillColor=none;align=left;verticalAlign=middle;whiteSpace=wrap;rounded=0;fontStyle=1;labelBorderColor=#000000;" parent="1" vertex="1">
          <mxGeometry x="570" y="120" width="120" height="20" as="geometry" />
        </mxCell>
        <mxCell id="lL1rAe6qH-szkAXvem2V-31" value="" style="rounded=0;whiteSpace=wrap;html=1;" parent="1" vertex="1">
          <mxGeometry x="40" y="280" width="320" height="180" as="geometry" />
        </mxCell>
        <mxCell id="lL1rAe6qH-szkAXvem2V-32" value="房间" style="text;html=1;align=center;verticalAlign=middle;resizable=0;points=[];autosize=1;strokeColor=none;fillColor=none;" parent="1" vertex="1">
          <mxGeometry x="180" y="250" width="40" height="20" as="geometry" />
        </mxCell>
        <mxCell id="lL1rAe6qH-szkAXvem2V-46" value="" style="rounded=1;whiteSpace=wrap;html=1;fontSize=14;align=center;" parent="1" vertex="1">
          <mxGeometry x="50" y="320" width="80" height="110" as="geometry" />
        </mxCell>
        <mxCell id="lL1rAe6qH-szkAXvem2V-36" value="失败的面" style="text;html=1;strokeColor=none;fillColor=none;align=center;verticalAlign=middle;whiteSpace=wrap;rounded=0;fontStyle=1" parent="1" vertex="1">
          <mxGeometry x="60" y="325" width="55" height="20" as="geometry" />
        </mxCell>
        <mxCell id="lL1rAe6qH-szkAXvem2V-41" value="" style="rounded=1;whiteSpace=wrap;html=1;fontSize=8;align=center;" parent="1" vertex="1">
          <mxGeometry x="150" y="320" width="120" height="110" as="geometry" />
        </mxCell>
        <mxCell id="lL1rAe6qH-szkAXvem2V-37" value="位置" style="ellipse;whiteSpace=wrap;html=1;aspect=fixed;fontSize=8;align=center;fontStyle=1" parent="1" vertex="1">
          <mxGeometry x="195" y="320" width="30" height="30" as="geometry" />
        </mxCell>
        <mxCell id="lL1rAe6qH-szkAXvem2V-38" value="位置" style="ellipse;whiteSpace=wrap;html=1;aspect=fixed;fontSize=8;align=center;fontStyle=1" parent="1" vertex="1">
          <mxGeometry x="195" y="400" width="30" height="30" as="geometry" />
        </mxCell>
        <mxCell id="lL1rAe6qH-szkAXvem2V-39" value="位置" style="ellipse;whiteSpace=wrap;html=1;aspect=fixed;fontSize=8;align=center;fontStyle=1" parent="1" vertex="1">
          <mxGeometry x="240" y="360" width="30" height="30" as="geometry" />
        </mxCell>
        <mxCell id="lL1rAe6qH-szkAXvem2V-40" value="位置" style="ellipse;whiteSpace=wrap;html=1;aspect=fixed;fontSize=8;align=center;fontStyle=1" parent="1" vertex="1">
          <mxGeometry x="150" y="360" width="30" height="30" as="geometry" />
        </mxCell>
        <mxCell id="lL1rAe6qH-szkAXvem2V-42" value="失败的面" style="text;html=1;strokeColor=none;fillColor=none;align=center;verticalAlign=middle;whiteSpace=wrap;rounded=0;fontStyle=1" parent="1" vertex="1">
          <mxGeometry x="60" y="345" width="55" height="20" as="geometry" />
        </mxCell>
        <mxCell id="lL1rAe6qH-szkAXvem2V-43" value="失败的面" style="text;html=1;strokeColor=none;fillColor=none;align=center;verticalAlign=middle;whiteSpace=wrap;rounded=0;fontStyle=1" parent="1" vertex="1">
          <mxGeometry x="60" y="365" width="55" height="20" as="geometry" />
        </mxCell>
        <mxCell id="lL1rAe6qH-szkAXvem2V-44" value="失败的面" style="text;html=1;strokeColor=none;fillColor=none;align=center;verticalAlign=middle;whiteSpace=wrap;rounded=0;fontStyle=1" parent="1" vertex="1">
          <mxGeometry x="60" y="385" width="55" height="20" as="geometry" />
        </mxCell>
        <mxCell id="lL1rAe6qH-szkAXvem2V-45" value="未落座" style="text;html=1;strokeColor=none;fillColor=none;align=center;verticalAlign=middle;whiteSpace=wrap;rounded=0;fontStyle=1;fontSize=14;" parent="1" vertex="1">
          <mxGeometry x="52.5" y="290" width="70" height="20" as="geometry" />
        </mxCell>
        <mxCell id="lL1rAe6qH-szkAXvem2V-47" value="已落座" style="text;html=1;strokeColor=none;fillColor=none;align=center;verticalAlign=middle;whiteSpace=wrap;rounded=0;fontStyle=1;fontSize=14;" parent="1" vertex="1">
          <mxGeometry x="175" y="290" width="70" height="20" as="geometry" />
        </mxCell>
        <mxCell id="lL1rAe6qH-szkAXvem2V-48" value="" style="rounded=1;whiteSpace=wrap;html=1;fontSize=14;align=center;" parent="1" vertex="1">
          <mxGeometry x="190" y="355" width="40" height="40" as="geometry" />
        </mxCell>
        <mxCell id="lL1rAe6qH-szkAXvem2V-49" value="开始游戏" style="text;html=1;strokeColor=none;fillColor=none;align=center;verticalAlign=middle;whiteSpace=wrap;rounded=0;fontSize=14;fontStyle=1" parent="1" vertex="1">
          <mxGeometry x="290" y="430" width="60" height="20" as="geometry" />
        </mxCell>
        <mxCell id="lL1rAe6qH-szkAXvem2V-50" value="" style="rounded=0;whiteSpace=wrap;html=1;" parent="1" vertex="1">
          <mxGeometry x="400" y="280" width="320" height="180" as="geometry" />
        </mxCell>
        <mxCell id="lL1rAe6qH-szkAXvem2V-51" value="打牌" style="text;html=1;align=center;verticalAlign=middle;resizable=0;points=[];autosize=1;strokeColor=none;fillColor=none;" parent="1" vertex="1">
          <mxGeometry x="540" y="250" width="40" height="20" as="geometry" />
        </mxCell>
        <mxCell id="lL1rAe6qH-szkAXvem2V-55" value="我的手牌" style="rounded=0;whiteSpace=wrap;html=1;fontSize=14;align=center;" parent="1" vertex="1">
          <mxGeometry x="485" y="420" width="150" height="20" as="geometry" />
        </mxCell>
        <mxCell id="lL1rAe6qH-szkAXvem2V-56" value="对方的牌" style="rounded=0;whiteSpace=wrap;html=1;fontSize=14;align=center;" parent="1" vertex="1">
          <mxGeometry x="485" y="297.5" width="150" height="20" as="geometry" />
        </mxCell>
        <mxCell id="lL1rAe6qH-szkAXvem2V-57" value="对方的牌" style="rounded=0;whiteSpace=wrap;html=1;fontSize=14;align=center;" parent="1" vertex="1">
          <mxGeometry x="420" y="317.5" width="20" height="105" as="geometry" />
        </mxCell>
        <mxCell id="lL1rAe6qH-szkAXvem2V-58" value="对方的牌" style="rounded=0;whiteSpace=wrap;html=1;fontSize=14;align=center;" parent="1" vertex="1">
          <mxGeometry x="680" y="317.5" width="20" height="105" as="geometry" />
        </mxCell>
        <mxCell id="lL1rAe6qH-szkAXvem2V-60" value="玩家昵称" style="text;html=1;strokeColor=none;fillColor=none;align=center;verticalAlign=middle;whiteSpace=wrap;rounded=0;fontSize=8;" parent="1" vertex="1">
          <mxGeometry x="540" y="287.5" width="40" height="10" as="geometry" />
        </mxCell>
        <mxCell id="lL1rAe6qH-szkAXvem2V-61" value="玩家昵称" style="text;html=1;strokeColor=none;fillColor=none;align=center;verticalAlign=middle;whiteSpace=wrap;rounded=0;fontSize=8;" parent="1" vertex="1">
          <mxGeometry x="540" y="440" width="40" height="10" as="geometry" />
        </mxCell>
        <mxCell id="lL1rAe6qH-szkAXvem2V-62" value="玩家昵称" style="text;html=1;strokeColor=none;fillColor=none;align=center;verticalAlign=middle;whiteSpace=wrap;rounded=0;fontSize=8;" parent="1" vertex="1">
          <mxGeometry x="700" y="350" width="10" height="40" as="geometry" />
        </mxCell>
        <mxCell id="lL1rAe6qH-szkAXvem2V-63" value="玩家昵称" style="text;html=1;strokeColor=none;fillColor=none;align=center;verticalAlign=middle;whiteSpace=wrap;rounded=0;fontSize=8;" parent="1" vertex="1">
          <mxGeometry x="410" y="350" width="10" height="40" as="geometry" />
        </mxCell>
        <mxCell id="lL1rAe6qH-szkAXvem2V-64" value="7" style="rounded=1;whiteSpace=wrap;html=1;fontSize=15;align=center;" parent="1" vertex="1">
          <mxGeometry x="404" y="285" width="22" height="30" as="geometry" />
        </mxCell>
        <mxCell id="lL1rAe6qH-szkAXvem2V-66" value="40" style="text;html=1;strokeColor=none;fillColor=none;align=center;verticalAlign=middle;whiteSpace=wrap;rounded=0;fontSize=15;" parent="1" vertex="1">
          <mxGeometry x="670" y="287.5" width="40" height="20" as="geometry" />
        </mxCell>
        <mxCell id="lL1rAe6qH-szkAXvem2V-67" value="7" style="rounded=1;whiteSpace=wrap;html=1;fontSize=15;align=center;" parent="1" vertex="1">
          <mxGeometry x="549" y="385" width="22" height="30" as="geometry" />
        </mxCell>
        <mxCell id="lL1rAe6qH-szkAXvem2V-69" value="7" style="rounded=1;whiteSpace=wrap;html=1;fontSize=15;align=center;" parent="1" vertex="1">
          <mxGeometry x="450" y="350" width="22" height="30" as="geometry" />
        </mxCell>
        <mxCell id="lL1rAe6qH-szkAXvem2V-70" value="7" style="rounded=1;whiteSpace=wrap;html=1;fontSize=15;align=center;" parent="1" vertex="1">
          <mxGeometry x="548" y="325" width="22" height="30" as="geometry" />
        </mxCell>
        <mxCell id="lL1rAe6qH-szkAXvem2V-71" value="7" style="rounded=1;whiteSpace=wrap;html=1;fontSize=15;align=center;" parent="1" vertex="1">
          <mxGeometry x="648" y="350" width="22" height="30" as="geometry" />
        </mxCell>
        <mxCell id="lL1rAe6qH-szkAXvem2V-73" value="" style="whiteSpace=wrap;html=1;shape=mxgraph.basic.isocube;isoAngle=15;fontSize=15;align=center;" parent="1" vertex="1">
          <mxGeometry x="550" y="360" width="20" height="20" as="geometry" />
        </mxCell>
        <mxCell id="lL1rAe6qH-szkAXvem2V-74" value="=" style="rounded=1;whiteSpace=wrap;html=1;fontSize=15;align=center;" parent="1" vertex="1">
          <mxGeometry x="430" y="285" width="22" height="30" as="geometry" />
        </mxCell>
        <mxCell id="lL1rAe6qH-szkAXvem2V-75" value="返回" style="text;html=1;strokeColor=none;fillColor=none;align=center;verticalAlign=middle;whiteSpace=wrap;rounded=0;fontStyle=1" parent="1" vertex="1">
          <mxGeometry x="404" y="190" width="55" height="20" as="geometry" />
        </mxCell>
        <mxCell id="lL1rAe6qH-szkAXvem2V-77" value="返回" style="text;html=1;strokeColor=none;fillColor=none;align=center;verticalAlign=middle;whiteSpace=wrap;rounded=0;fontStyle=1" parent="1" vertex="1">
          <mxGeometry x="40" y="435" width="55" height="20" as="geometry" />
        </mxCell>
        <mxCell id="lL1rAe6qH-szkAXvem2V-78" value="返回" style="text;html=1;strokeColor=none;fillColor=none;align=center;verticalAlign=middle;whiteSpace=wrap;rounded=0;fontStyle=1" parent="1" vertex="1">
          <mxGeometry x="400" y="435" width="55" height="20" as="geometry" />
        </mxCell>
        <mxCell id="lL1rAe6qH-szkAXvem2V-84" value="" style="rounded=0;whiteSpace=wrap;html=1;" parent="1" vertex="1">
          <mxGeometry x="40" y="520" width="320" height="180" as="geometry" />
        </mxCell>
        <mxCell id="lL1rAe6qH-szkAXvem2V-85" value="结算" style="text;html=1;align=center;verticalAlign=middle;resizable=0;points=[];autosize=1;strokeColor=none;fillColor=none;" parent="1" vertex="1">
          <mxGeometry x="180" y="490" width="40" height="20" as="geometry" />
        </mxCell>
        <mxCell id="lL1rAe6qH-szkAXvem2V-86" value="我的手牌" style="rounded=0;whiteSpace=wrap;html=1;fontSize=14;align=center;" parent="1" vertex="1">
          <mxGeometry x="125" y="660" width="150" height="20" as="geometry" />
        </mxCell>
        <mxCell id="lL1rAe6qH-szkAXvem2V-87" value="对方的牌" style="rounded=0;whiteSpace=wrap;html=1;fontSize=14;align=center;" parent="1" vertex="1">
          <mxGeometry x="125" y="537.5" width="150" height="20" as="geometry" />
        </mxCell>
        <mxCell id="lL1rAe6qH-szkAXvem2V-88" value="对方的牌" style="rounded=0;whiteSpace=wrap;html=1;fontSize=14;align=center;" parent="1" vertex="1">
          <mxGeometry x="60" y="557.5" width="20" height="105" as="geometry" />
        </mxCell>
        <mxCell id="lL1rAe6qH-szkAXvem2V-89" value="对方的牌" style="rounded=0;whiteSpace=wrap;html=1;fontSize=14;align=center;" parent="1" vertex="1">
          <mxGeometry x="320" y="557.5" width="20" height="105" as="geometry" />
        </mxCell>
        <mxCell id="lL1rAe6qH-szkAXvem2V-90" value="玩家昵称" style="text;html=1;strokeColor=none;fillColor=none;align=center;verticalAlign=middle;whiteSpace=wrap;rounded=0;fontSize=8;" parent="1" vertex="1">
          <mxGeometry x="180" y="527.5" width="40" height="10" as="geometry" />
        </mxCell>
        <mxCell id="lL1rAe6qH-szkAXvem2V-91" value="玩家昵称" style="text;html=1;strokeColor=none;fillColor=none;align=center;verticalAlign=middle;whiteSpace=wrap;rounded=0;fontSize=8;" parent="1" vertex="1">
          <mxGeometry x="180" y="680" width="40" height="10" as="geometry" />
        </mxCell>
        <mxCell id="lL1rAe6qH-szkAXvem2V-92" value="玩家昵称" style="text;html=1;strokeColor=none;fillColor=none;align=center;verticalAlign=middle;whiteSpace=wrap;rounded=0;fontSize=8;" parent="1" vertex="1">
          <mxGeometry x="340" y="590" width="10" height="40" as="geometry" />
        </mxCell>
        <mxCell id="lL1rAe6qH-szkAXvem2V-93" value="玩家昵称" style="text;html=1;strokeColor=none;fillColor=none;align=center;verticalAlign=middle;whiteSpace=wrap;rounded=0;fontSize=8;" parent="1" vertex="1">
          <mxGeometry x="50" y="590" width="10" height="40" as="geometry" />
        </mxCell>
        <mxCell id="lL1rAe6qH-szkAXvem2V-94" value="7" style="rounded=1;whiteSpace=wrap;html=1;fontSize=15;align=center;" parent="1" vertex="1">
          <mxGeometry x="44" y="525" width="22" height="30" as="geometry" />
        </mxCell>
        <mxCell id="lL1rAe6qH-szkAXvem2V-95" value="40" style="text;html=1;strokeColor=none;fillColor=none;align=center;verticalAlign=middle;whiteSpace=wrap;rounded=0;fontSize=15;" parent="1" vertex="1">
          <mxGeometry x="310" y="527.5" width="40" height="20" as="geometry" />
        </mxCell>
        <mxCell id="lL1rAe6qH-szkAXvem2V-96" value="7" style="rounded=1;whiteSpace=wrap;html=1;fontSize=15;align=center;" parent="1" vertex="1">
          <mxGeometry x="189" y="625" width="22" height="30" as="geometry" />
        </mxCell>
        <mxCell id="lL1rAe6qH-szkAXvem2V-97" value="7" style="rounded=1;whiteSpace=wrap;html=1;fontSize=15;align=center;" parent="1" vertex="1">
          <mxGeometry x="90" y="590" width="22" height="30" as="geometry" />
        </mxCell>
        <mxCell id="lL1rAe6qH-szkAXvem2V-98" value="7" style="rounded=1;whiteSpace=wrap;html=1;fontSize=15;align=center;" parent="1" vertex="1">
          <mxGeometry x="188" y="565" width="22" height="30" as="geometry" />
        </mxCell>
        <mxCell id="lL1rAe6qH-szkAXvem2V-99" value="7" style="rounded=1;whiteSpace=wrap;html=1;fontSize=15;align=center;" parent="1" vertex="1">
          <mxGeometry x="288" y="590" width="22" height="30" as="geometry" />
        </mxCell>
        <mxCell id="lL1rAe6qH-szkAXvem2V-100" value="" style="whiteSpace=wrap;html=1;shape=mxgraph.basic.isocube;isoAngle=15;fontSize=15;align=center;" parent="1" vertex="1">
          <mxGeometry x="190" y="600" width="20" height="20" as="geometry" />
        </mxCell>
        <mxCell id="lL1rAe6qH-szkAXvem2V-101" value="=" style="rounded=1;whiteSpace=wrap;html=1;fontSize=15;align=center;" parent="1" vertex="1">
          <mxGeometry x="70" y="525" width="22" height="30" as="geometry" />
        </mxCell>
        <mxCell id="lL1rAe6qH-szkAXvem2V-102" value="返回" style="text;html=1;strokeColor=none;fillColor=none;align=center;verticalAlign=middle;whiteSpace=wrap;rounded=0;fontStyle=1" parent="1" vertex="1">
          <mxGeometry x="40" y="675" width="55" height="20" as="geometry" />
        </mxCell>
        <mxCell id="lL1rAe6qH-szkAXvem2V-103" value="胜利，夺取江山" style="rounded=1;whiteSpace=wrap;html=1;fontSize=23;align=center;" parent="1" vertex="1">
          <mxGeometry x="105" y="552.5" width="190" height="105" as="geometry" />
        </mxCell>
        <mxCell id="lL1rAe6qH-szkAXvem2V-104" value="失败，江山丢了" style="rounded=1;whiteSpace=wrap;html=1;fontSize=23;align=center;" parent="1" vertex="1">
          <mxGeometry x="400" y="520" width="190" height="105" as="geometry" />
        </mxCell>
        <mxCell id="-Q7XZXWzbQ8f31WP-loJ-1" value="下一把" style="rounded=1;whiteSpace=wrap;html=1;fontSize=14;fontStyle=1" parent="1" vertex="1">
          <mxGeometry x="155" y="635" width="90" height="20" as="geometry" />
        </mxCell>
        <mxCell id="-Q7XZXWzbQ8f31WP-loJ-3" value="下一把" style="rounded=1;whiteSpace=wrap;html=1;fontSize=14;fontStyle=1" parent="1" vertex="1">
          <mxGeometry x="452" y="600" width="90" height="20" as="geometry" />
        </mxCell>
      </root>
    </mxGraphModel>
  </diagram>
</mxfile>
